<svg width="302" height="254" viewBox="0 0 302 254" fill="none" xmlns="http://www.w3.org/2000/svg">
<g clip-path="url(#clip0_244_2349)">
<path d="M289.173 253.629H0C3.16855 244.279 9.02003 236.346 17.2689 233.993C29.3353 230.555 42.1053 240.009 54.1452 236.453C60.9854 234.436 66.3682 228.558 72.0314 223.676C93.3792 205.257 122.633 199.813 147.897 209.561C161.101 214.655 173.133 223.562 186.659 227.349C204.15 232.248 222.442 228.185 240.429 227.516C257.943 226.864 283.043 235.125 289.173 253.629Z" fill="#1EC40A" fill-opacity="0.37"/>
<path d="M52.6204 180.242L33.4121 253.267L36.1506 253.988L55.3589 180.962L52.6204 180.242Z" fill="#C1D8ED"/>
<path d="M86.6587 180.381L83.8613 180.82L95.3113 253.847L98.1087 253.408L86.6587 180.381Z" fill="#C1D8ED"/>
<path d="M50.0495 110.552C50.0495 110.552 26.6582 109.074 26.6582 129.511C26.6582 149.948 30.1033 178.51 47.3411 181.711C64.5789 184.911 90.0419 183.947 95.9538 182.945C103.217 181.714 106.384 164.865 96.7089 163.737C69.2548 160.536 82.551 112.768 50.0495 110.552Z" fill="#C1D8ED"/>
<path d="M99.7065 239.875L98.8164 251.417" stroke="#E98862" stroke-width="9.91057" stroke-miterlimit="10"/>
<path d="M116.313 253.541C116.568 253.54 116.82 253.489 117.055 253.39C117.289 253.292 117.502 253.148 117.681 252.968C117.861 252.787 118.003 252.572 118.099 252.337C118.195 252.101 118.244 251.849 118.243 251.594C118.243 251.547 118.243 251.5 118.237 251.453C118.208 251.085 118.075 250.732 117.853 250.437C117.63 250.142 117.329 249.917 116.983 249.787L105.447 245.924C105.224 245.85 104.987 245.825 104.753 245.851C104.519 245.877 104.294 245.953 104.092 246.075C102.506 247.175 100.609 247.738 98.6797 247.679C97.1771 247.573 95.7347 247.046 94.5173 246.158C94.4102 246.071 94.2804 246.015 94.1431 245.999C94.0057 245.982 93.8665 246.005 93.7415 246.064C93.6165 246.123 93.5109 246.217 93.4371 246.334C93.3632 246.451 93.3241 246.586 93.3242 246.725V252.365C93.3242 252.7 93.4574 253.022 93.6944 253.259C93.9314 253.496 94.2529 253.629 94.588 253.629H94.5932L116.313 253.541Z" fill="#C1D8ED"/>
<path d="M139.02 239.875L140.961 251.417" stroke="#E98862" stroke-width="9.91057" stroke-miterlimit="10"/>
<path d="M148.956 241.582L127.197 157.867C126.71 155.996 125.617 154.34 124.088 153.158C122.56 151.975 120.682 151.334 118.749 151.333H71.0613V151.364H44.3457V159.551C44.3456 161.911 44.8105 164.249 45.7137 166.429C46.617 168.61 47.9409 170.592 49.61 172.261C51.279 173.93 53.2605 175.254 55.4412 176.157C57.6219 177.061 59.9592 177.526 62.3197 177.526H75.3497V177.577H98.0968L91.8334 244.173L109.218 245.808L115.275 181.411L132.057 245.973L148.956 241.582Z" fill="#262626"/>
<path d="M112.621 111.353C112.621 111.353 112.692 105.685 116.743 105.98C119.299 106.166 131.445 105.602 131.625 106.709C132.073 109.446 120.963 110.115 119.955 112.665L112.621 111.353Z" fill="#E98862"/>
<path d="M115.309 106.161C115.309 106.161 120.948 104.321 122.334 104.651C123.561 104.943 121.003 106.94 121.003 106.94L115.309 106.161Z" fill="#E98862"/>
<path d="M100.976 136.225L121.098 112.802L112.426 107.926L96.3136 126.053L83.713 103.499C82.5209 99.9343 79.8054 97.5463 74.2649 97.3075C73.9676 97.2981 73.491 97.2839 72.8774 97.2745C72.7547 99.8701 56.676 99.8607 56.3362 97.2131C51.7963 97.2179 48.068 98.6148 45.916 100.767C38.4831 108.2 47.6055 120.866 47.6055 130.777C47.6055 140.687 43.1222 145.133 43.4525 150.22C43.9716 158.215 82.8258 156.327 84.8032 151.783C86.1293 148.738 84.8442 146.45 83.8329 141.005H100.975L100.976 136.225ZM82.8876 128.887C82.9069 127.22 83.0358 125.475 83.2128 123.7L87.1298 130.713H82.889C82.8829 130.122 82.8805 129.519 82.889 128.887H82.8876Z" fill="#1EC40A"/>
<path d="M72.8771 97.2728C72.7544 99.8684 71.3386 103.686 66.9874 103.969C61.178 104.356 56.6757 99.859 56.3359 97.2114H56.3548C62.0652 97.2114 69.5406 97.2209 72.8771 97.2728Z" fill="#E98862"/>
<path d="M157.044 253.541C157.298 253.54 157.55 253.489 157.785 253.39C158.02 253.292 158.233 253.148 158.412 252.967C158.591 252.786 158.733 252.572 158.829 252.336C158.926 252.1 158.975 251.848 158.974 251.594C158.974 251.546 158.974 251.499 158.967 251.452C158.939 251.084 158.805 250.731 158.583 250.436C158.361 250.141 158.059 249.916 157.713 249.786L146.178 245.924C145.954 245.85 145.717 245.825 145.483 245.851C145.249 245.877 145.024 245.953 144.822 246.075C143.236 247.175 141.339 247.738 139.41 247.679C137.907 247.573 136.465 247.046 135.247 246.158C135.14 246.071 135.01 246.015 134.873 245.998C134.736 245.982 134.597 246.004 134.472 246.064C134.347 246.123 134.241 246.217 134.167 246.334C134.093 246.451 134.054 246.586 134.055 246.725V252.365C134.055 252.7 134.188 253.022 134.425 253.259C134.662 253.496 134.983 253.629 135.319 253.629H135.324L157.044 253.541Z" fill="#C1D8ED"/>
<path d="M21.7405 145.577H17.3086V253.629H21.7405V145.577Z" fill="#DEE8F5"/>
<path d="M235.514 145.577H231.082V253.629H235.514V145.577Z" fill="#C1D8ED"/>
<path d="M235.513 144.223H195.543V246.241H235.513V144.223Z" fill="#9FF095"/>
<path d="M191.994 238.853H187.562V253.629H191.994V238.853Z" fill="#C1D8ED"/>
<path d="M241.641 141.115H11.1816V147.209H241.641V141.115Z" fill="#DEE8F5"/>
<path d="M197.758 145.577H193.326V253.629H197.758V145.577Z" fill="#DEE8F5"/>
<path d="M154.24 145.577H149.809V253.629H154.24V145.577Z" fill="#DEE8F5"/>
<path d="M195.542 147.217H152.023V246.241H195.542V147.217Z" fill="#DEE8F5"/>
<path d="M115.19 136.91C112.486 136.751 107.69 136.307 105.69 135.12C106.704 134.81 108.064 134.305 107.936 133.851C107.601 132.656 102.899 133.399 101.493 133.399L100.98 133.42V139.463C100.98 139.463 110.246 142.937 115.7 138.489C115.839 138.375 115.94 138.223 115.991 138.051C116.041 137.879 116.039 137.696 115.984 137.525C115.929 137.355 115.823 137.205 115.682 137.095C115.54 136.985 115.369 136.921 115.19 136.91Z" fill="#E98862"/>
<path d="M141.653 113.839L135.922 137.895C135.766 138.552 135.878 139.244 136.232 139.819C136.586 140.394 137.153 140.805 137.81 140.962C138.003 141.008 138.201 141.031 138.399 141.032H172.181C172.74 141.032 173.282 140.848 173.726 140.51C174.17 140.171 174.49 139.697 174.638 139.159L181.243 115.104C181.347 114.726 181.362 114.329 181.287 113.944C181.212 113.559 181.05 113.197 180.812 112.885C180.574 112.573 180.268 112.321 179.916 112.147C179.565 111.973 179.178 111.882 178.786 111.882H144.131C143.558 111.882 143.002 112.075 142.552 112.43C142.102 112.786 141.786 113.282 141.653 113.839Z" fill="#1EC40A"/>
<path d="M123.895 141.033H164.726C164.923 141.033 165.118 140.994 165.299 140.919C165.481 140.844 165.646 140.733 165.785 140.594C165.924 140.455 166.034 140.29 166.109 140.109C166.185 139.927 166.223 139.732 166.223 139.536C166.223 139.339 166.185 139.145 166.109 138.963C166.034 138.781 165.924 138.616 165.785 138.477C165.646 138.338 165.481 138.228 165.299 138.153C165.118 138.078 164.923 138.039 164.726 138.039H123.895C123.498 138.039 123.118 138.197 122.837 138.477C122.556 138.758 122.398 139.139 122.398 139.536C122.398 139.732 122.437 139.927 122.512 140.109C122.588 140.29 122.698 140.455 122.837 140.594C122.976 140.733 123.141 140.844 123.323 140.919C123.504 140.994 123.699 141.033 123.895 141.033Z" fill="#9EBCEA"/>
<path d="M159.966 130.216C162.173 130.216 163.961 128.427 163.961 126.22C163.961 124.014 162.173 122.225 159.966 122.225C157.759 122.225 155.971 124.014 155.971 126.22C155.971 128.427 157.759 130.216 159.966 130.216Z" fill="white"/>
<path d="M73.5679 88.3766C76.0659 88.3766 78.0909 86.3515 78.0909 83.8536C78.0909 81.3556 76.0659 79.3306 73.5679 79.3306C71.0699 79.3306 69.0449 81.3556 69.0449 83.8536C69.0449 86.3515 71.0699 88.3766 73.5679 88.3766Z" fill="#DEE8F5"/>
<path d="M74.3564 84.3814C74.5252 84.3486 74.6818 84.2702 74.8093 84.1549C74.9368 84.0395 75.0303 83.8915 75.0799 83.7268C75.1979 83.3351 76.4447 74.1178 72.8358 68.5641C72.2599 67.6084 71.4649 66.8034 70.5165 66.2156C69.568 65.6277 68.4934 65.2738 67.3812 65.1832C67.2578 65.1702 67.133 65.1816 67.014 65.2168C66.8949 65.252 66.784 65.3104 66.6876 65.3886C66.5911 65.4667 66.511 65.5631 66.4519 65.6723C66.3928 65.7815 66.3558 65.9012 66.343 66.0247C66.2892 66.5438 66.6663 66.5358 67.1849 66.591C69.7008 66.8515 70.0821 67.8397 71.2634 69.6114C74.4475 74.392 73.2969 83.0954 73.271 83.1827C73.2239 83.3385 73.2179 83.5039 73.2536 83.6627C73.2893 83.8215 73.3655 83.9684 73.4747 84.0891C73.5839 84.2098 73.7225 84.3002 73.877 84.3515C74.0315 84.4028 74.1967 84.4128 74.3564 84.3814Z" fill="#C1D8ED"/>
<path d="M72.3999 88.2701C74.8979 88.2701 76.9229 86.2451 76.9229 83.7471C76.9229 81.2491 74.8979 79.2241 72.3999 79.2241C69.902 79.2241 67.877 81.2491 67.877 83.7471C67.877 86.2451 69.902 88.2701 72.3999 88.2701Z" fill="#C1D8ED"/>
<path d="M70.8899 98.132L70.5218 98.1744H58.8887C59.8325 96.6076 60.8519 93.5353 60.38 87.7919L67.9214 86.395C67.9214 86.395 67.072 95.3051 70.8899 98.132Z" fill="#E98862"/>
<path opacity="0.15" d="M69.344 96.2712L63.0801 91.4792L68 91.4282C68.1424 93.1122 68.5982 94.7547 69.344 96.2712Z" fill="black"/>
<path d="M56.1042 83.9406C56.6261 86.9553 58.2713 89.8104 60.9306 90.7836C63.8295 91.9343 66.9659 92.3582 70.0663 92.0181C78.3199 91.3414 76.6875 72.5746 72.7686 68.9279C68.8496 65.2813 57.3491 67.5914 55.9503 73.6888C55.2269 76.8427 55.6072 81.0707 56.1042 83.9406Z" fill="#E98862"/>
<path d="M75.4907 69.5763C75.2444 69.1855 74.8993 68.8666 74.4902 68.6518C70.8252 66.6584 64.0322 65.9689 60.7698 66.9448C56.9849 68.0775 52.2391 71.2503 53.4548 78.9442C53.5063 79.2679 53.5615 79.5803 53.6186 79.888C52.4232 79.6837 51.1947 79.8124 50.0676 80.2598C48.9405 80.7073 47.9582 81.4563 47.2285 82.4249C46.4988 83.3935 46.0497 84.5442 45.9305 85.751C45.8112 86.9578 46.0264 88.1742 46.5525 89.2668C47.0786 90.3595 47.8952 91.2862 48.913 91.9456C49.9307 92.605 51.1104 92.9716 52.3226 93.0051C53.5348 93.0387 54.7329 92.738 55.7856 92.136C56.8383 91.5339 57.705 90.6538 58.2907 89.5919C58.8523 90.077 59.459 90.5073 60.1025 90.877C60.5541 91.1455 60.6631 90.927 60.8198 90.4253C61.3672 88.674 61.9052 81.7474 61.4758 76.7181L70.3698 76.4104L71.9196 72.0016L73.1901 76.4104H76.2189C76.6253 74.02 77.0443 71.3121 75.4907 69.5763Z" fill="#0F1011"/>
<path d="M67.9123 81.6182C68.29 81.6182 68.5962 81.312 68.5962 80.9343C68.5962 80.5567 68.29 80.2505 67.9123 80.2505C67.5347 80.2505 67.2285 80.5567 67.2285 80.9343C67.2285 81.312 67.5347 81.6182 67.9123 81.6182Z" fill="#0F1011"/>
<path d="M73.3069 81.1755C73.6845 81.1755 73.9907 80.8694 73.9907 80.4917C73.9907 80.114 73.6845 79.8079 73.3069 79.8079C72.9292 79.8079 72.623 80.114 72.623 80.4917C72.623 80.8694 72.9292 81.1755 73.3069 81.1755Z" fill="#0F1011"/>
<path d="M74.4923 79.0348H74.488L72.6763 79.0117C72.5932 79.008 72.5148 78.9723 72.4576 78.912C72.4003 78.8517 72.3686 78.7716 72.3691 78.6885C72.3697 78.6054 72.4024 78.5257 72.4605 78.4662C72.5186 78.4067 72.5974 78.372 72.6805 78.3694H72.6848L74.496 78.392C74.5813 78.3925 74.6628 78.4269 74.7227 78.4875C74.7827 78.5481 74.816 78.6301 74.8155 78.7153C74.815 78.8005 74.7807 78.8821 74.7201 78.942C74.6595 79.0019 74.5775 79.0353 74.4923 79.0348Z" fill="#0F1011"/>
<path d="M66.4358 79.695C66.3572 79.6948 66.2814 79.6658 66.2228 79.6135C66.1641 79.5612 66.1266 79.4892 66.1174 79.4112C66.1083 79.3331 66.128 79.2544 66.1729 79.1899C66.2178 79.1254 66.2848 79.0796 66.3612 79.0612L68.147 78.6318C68.1883 78.6213 68.2312 78.6191 68.2733 78.6253C68.3154 78.6315 68.3558 78.646 68.3923 78.668C68.4287 78.6899 68.4604 78.7189 68.4856 78.7533C68.5107 78.7876 68.5288 78.8266 68.5388 78.8679C68.5487 78.9093 68.5504 78.9522 68.5436 78.9943C68.5369 79.0363 68.5218 79.0765 68.4994 79.1127C68.477 79.1488 68.4476 79.1802 68.4129 79.2049C68.3783 79.2296 68.3391 79.2472 68.2976 79.2566L66.5118 79.6861C66.4869 79.692 66.4614 79.695 66.4358 79.695Z" fill="#0F1011"/>
<path d="M64.3532 82.6071C64.3867 82.9878 64.3445 83.3714 64.2292 83.7358C64.1138 84.1002 63.9275 84.4382 63.6811 84.7304C63.4346 85.0225 63.1328 85.263 62.793 85.4381C62.4532 85.6131 62.0822 85.7192 61.7012 85.7504C61.3203 85.7815 60.9369 85.7369 60.5733 85.6193C60.2096 85.5017 59.8727 85.3134 59.5821 85.0651C59.2915 84.8168 59.0529 84.5135 58.8799 84.1727C58.707 83.8318 58.6032 83.4601 58.5744 83.079C58.5367 82.6983 58.5761 82.314 58.69 81.9489C58.804 81.5837 58.9902 81.2452 59.2377 80.9536C59.4851 80.6619 59.7888 80.423 60.1305 80.2511C60.4722 80.0792 60.845 79.9778 61.2266 79.9529C63.2928 79.8873 64.222 81.0115 64.3532 82.6071Z" fill="#E98862"/>
<g opacity="0.15">
<path d="M70.9471 84.7273C70.8905 84.7273 70.8359 84.707 70.793 84.6702C70.7502 84.6333 70.722 84.5823 70.7136 84.5264C70.7052 84.4705 70.7171 84.4134 70.7472 84.3656C70.7773 84.3177 70.8236 84.2823 70.8777 84.2657L72.2689 83.8386L71.2958 81.672C71.282 81.6435 71.274 81.6126 71.2724 81.5811C71.2707 81.5495 71.2754 81.5179 71.2862 81.4882C71.297 81.4585 71.3136 81.4313 71.3351 81.4081C71.3567 81.385 71.3826 81.3664 71.4114 81.3534C71.4403 81.3405 71.4714 81.3335 71.503 81.3328C71.5346 81.3322 71.566 81.3378 71.5954 81.3496C71.6248 81.3613 71.6515 81.3787 71.6739 81.401C71.6964 81.4232 71.7142 81.4497 71.7262 81.4789L72.8088 83.8891C72.8225 83.9196 72.8296 83.9527 72.8296 83.9861C72.8296 84.0196 72.8224 84.0527 72.8086 84.0832C72.7948 84.1136 72.7747 84.1408 72.7496 84.163C72.7245 84.1851 72.695 84.2016 72.663 84.2114L71.0164 84.7169C70.994 84.7238 70.9706 84.7273 70.9471 84.7273Z" fill="black"/>
</g>
<path d="M68.2266 86.3193C68.2266 86.3193 70.7505 86.586 72.5211 85.9673C72.5211 85.9673 72.5075 87.6299 70.5098 87.7937C68.5121 87.9574 68.2266 86.3193 68.2266 86.3193Z" fill="#F8FCFF"/>
<path d="M57.1205 83.8396L57.1615 83.8306C57.4048 83.772 57.6149 83.6191 57.7455 83.4057C57.8761 83.1922 57.9166 82.9356 57.8581 82.6923C57.8397 82.6144 56.0331 74.8743 59.5353 70.1913C61.1871 67.9822 63.8082 66.7721 67.3317 66.5928C67.8456 66.5683 68.2533 66.5956 68.2283 66.0737C68.2048 65.8275 68.0901 65.5991 67.9067 65.4332C67.7233 65.2673 67.4846 65.1759 67.2373 65.177C63.9932 64.934 60.0238 66.3814 58.02 69.0653C53.9887 74.4651 55.9392 82.7815 56.0246 83.1331C56.0814 83.3692 56.2269 83.5744 56.431 83.7059C56.6351 83.8375 56.882 83.8854 57.1205 83.8396Z" fill="#C1D8ED"/>
<path d="M58.4624 88.5423C60.9604 88.5423 62.9854 86.5173 62.9854 84.0193C62.9854 81.5214 60.9604 79.4963 58.4624 79.4963C55.9645 79.4963 53.9395 81.5214 53.9395 84.0193C53.9395 86.5173 55.9645 88.5423 58.4624 88.5423Z" fill="#C1D8ED"/>
<path d="M57.0738 88.6781C59.5718 88.6781 61.5968 86.6531 61.5968 84.1551C61.5968 81.6571 59.5718 79.6321 57.0738 79.6321C54.5758 79.6321 52.5508 81.6571 52.5508 84.1551C52.5508 86.6531 54.5758 88.6781 57.0738 88.6781Z" fill="#DEE8F5"/>
<path d="M57.6191 86.5422C57.8369 87.533 58.1184 88.5086 58.462 89.463C59.008 90.3668 66.7397 89.959 66.7397 89.959" stroke="#DEE8F5" stroke-width="1.4158" stroke-linecap="round" stroke-linejoin="round"/>
<path d="M66.5735 91.0813H67.532C68.1432 91.0813 68.6387 90.5858 68.6387 89.9746C68.6387 89.3634 68.1432 88.8679 67.532 88.8679H66.5735C65.9623 88.8679 65.4668 89.3634 65.4668 89.9746C65.4668 90.5858 65.9623 91.0813 66.5735 91.0813Z" fill="#C1D8ED"/>
<path d="M126.076 99.0811L131.973 94.6119H186.811V58.4624H126.076V99.0811Z" fill="#DEE8F5"/>
<path d="M248.099 57.5306C263.986 57.5306 276.864 44.652 276.864 28.7654C276.864 12.8789 263.986 0.000244141 248.099 0.000244141C232.213 0.000244141 219.334 12.8789 219.334 28.7654C219.334 44.652 232.213 57.5306 248.099 57.5306Z" fill="#DEE8F5"/>
<path d="M231.86 37.1151C231.86 37.1151 229.579 33.4921 229.673 32.5109C229.766 31.5298 232.617 30.5373 232.617 30.5373C232.617 30.5373 232.204 29.6699 231.837 28.7176C231.412 27.6184 231.048 26.4051 231.446 26.2866C231.829 26.1701 232.411 27.1673 232.945 28.3263C233.63 29.8148 234.234 31.5694 234.234 31.5694C234.234 31.5694 234.297 29.8365 234.938 29.9469C235.201 29.9941 235.313 30.3051 235.316 31.5477C235.316 32.9635 235.537 35.1703 235.537 35.1703L231.86 37.1151Z" fill="#E98862"/>
<path d="M239.104 53.3563C238.443 53.3559 237.798 53.1586 237.25 52.7896C236.702 52.4205 236.277 51.8965 236.028 51.2845L230.059 36.5829L236.212 34.0817L238.02 38.5329L239.439 31.4421L245.951 32.7456L242.361 50.6856C242.221 51.3858 241.859 52.0221 241.329 52.5002C240.798 52.9784 240.128 53.2729 239.417 53.3402C239.312 53.3511 239.207 53.3563 239.104 53.3563Z" fill="#367CFF"/>
<path d="M228.324 41.4361L232.017 40.8467C232.162 40.8235 232.301 40.77 232.424 40.6895C232.547 40.609 232.652 40.5034 232.731 40.3796C232.811 40.2558 232.863 40.1166 232.885 39.9711C232.907 39.8257 232.897 39.6773 232.858 39.5356L230.535 31.198C230.466 30.9509 230.309 30.7378 230.093 30.5994C229.877 30.4609 229.618 30.4067 229.365 30.4472L225.673 31.0366C225.527 31.0597 225.389 31.1133 225.266 31.1938C225.143 31.2743 225.038 31.3799 224.958 31.5037C224.879 31.6274 224.827 31.7666 224.805 31.9121C224.783 32.0575 224.792 32.2059 224.831 32.3476L227.155 40.6852C227.223 40.9322 227.381 41.1451 227.596 41.2836C227.812 41.4221 228.071 41.4763 228.324 41.4361Z" fill="#C1D8ED"/>
<path d="M234.272 39.252L232.094 42.2067C232.094 42.2067 226.242 41.0335 225.692 36.5242C225.629 36.0051 225.683 34.569 226.326 34.7615C228.001 35.2637 230.087 37.8343 231.549 38.176C231.215 37.5785 230.808 36.7352 231.071 36.5808C231.76 36.1754 233.617 38.6234 234.272 39.252Z" fill="#E98862"/>
<path d="M262.619 49.3418C262.617 50.6905 262.753 52.0359 263.027 53.3565C259.488 55.5017 255.529 56.8594 251.418 57.3371C247.307 57.8149 243.142 57.4016 239.205 56.1254C239.694 53.4883 239.909 50.8078 239.848 48.1266C239.844 47.9468 239.841 47.7641 239.835 47.5782L230.615 43.5125L233.292 37.4354L239.089 39.9914C238.395 33.7195 238.373 28.0449 245.415 27.7401C245.608 27.7311 245.915 27.725 246.312 27.7188C246.391 29.3942 256.766 29.3881 256.985 27.6792C259.916 27.6825 262.318 28.5811 263.711 29.9728C268.507 34.77 262.619 42.9462 262.619 49.3418Z" fill="#1EC40A"/>
<path d="M246.309 27.7184C246.388 29.3937 247.3 31.8581 250.11 32.0436C253.857 32.2904 256.764 29.3876 256.982 27.6787H256.973C253.286 27.6787 248.459 27.6848 246.309 27.7184Z" fill="#E98862"/>
<path d="M254.135 23.798C254.132 23.7428 254.132 23.6881 254.132 23.6329C254.132 23.0774 254.153 22.4724 254.208 21.8131L253.518 21.6847L249.333 20.907C249.415 21.9917 249.398 23.0818 249.281 24.1633C249.268 24.2855 249.253 24.4111 249.234 24.5361C249.233 24.5475 249.231 24.5588 249.227 24.5696C249.203 24.7343 249.176 24.9 249.145 25.0642C249.127 25.1714 249.105 25.278 249.081 25.3851C249.057 25.5225 249.023 25.657 248.987 25.7915C248.95 25.926 248.914 26.0572 248.871 26.1884C248.828 26.3196 248.788 26.4479 248.739 26.573C248.65 26.8203 248.542 27.0602 248.416 27.2908V27.2936C248.185 27.7457 247.86 28.1434 247.463 28.4602H255.136C254.654 27.6339 254.161 26.2016 254.135 23.798Z" fill="#E98862"/>
<path opacity="0.15" d="M248.412 27.2994L252.466 24.1983L249.282 24.1653C249.19 25.2551 248.895 26.3181 248.412 27.2994Z" fill="black"/>
<path d="M256.98 19.32C256.642 21.271 255.577 23.1186 253.857 23.7486C251.814 24.4966 250.3 24.5471 247.945 24.5471C244.73 24.5471 244.837 21.1964 244.746 17.8169C244.656 14.4251 244.925 10.7851 246.196 9.6053C248.732 7.24564 256.174 8.74024 257.079 12.6861C257.548 14.7248 257.301 17.462 256.98 19.32Z" fill="#E98862"/>
<path d="M243.024 11.5661C242.851 11.5325 242.686 11.4626 242.542 11.361C242.398 11.2595 242.276 11.1285 242.186 10.9768C242.096 10.8251 242.039 10.656 242.018 10.4806C241.998 10.3052 242.015 10.1276 242.068 9.95921C242.307 9.08897 243.422 9.28199 243.422 9.28199C243.422 9.28199 242.366 9.08897 242.366 8.16682C242.366 7.58587 242.812 6.60189 244.159 7.16443C245.682 7.71317 247.326 7.83252 248.911 7.50942C249.686 7.34027 250.473 7.22984 251.265 7.17906H251.269C252.179 7.16375 253.086 7.28513 253.959 7.53915C256.408 8.27206 260.115 10.4684 259.327 15.4468C258.449 21.0015 255.842 23.1252 254.695 23.8076C254.627 23.8485 254.551 23.8735 254.472 23.8806C254.393 23.8877 254.313 23.8768 254.239 23.8486C254.165 23.8205 254.098 23.7759 254.044 23.7181C253.99 23.6604 253.95 23.5911 253.926 23.5154C253.6 22.4739 253.039 19.8537 253.197 14.4506C245.668 14.0815 243.502 13.9692 243.502 13.9692C243.502 13.9692 241.729 14.0358 241.729 12.7422C241.723 12.5757 241.753 12.4097 241.817 12.256C241.882 12.1023 241.979 11.9646 242.103 11.8526C242.226 11.7405 242.372 11.6568 242.532 11.6073C242.691 11.5578 242.859 11.5438 243.024 11.5661Z" fill="#0F1011"/>
<path d="M249.341 17.8168C249.585 17.8168 249.783 17.6188 249.783 17.3746C249.783 17.1304 249.585 16.9324 249.341 16.9324C249.096 16.9324 248.898 17.1304 248.898 17.3746C248.898 17.6188 249.096 17.8168 249.341 17.8168Z" fill="#0F1011"/>
<path d="M245.848 17.5304C246.093 17.5304 246.291 17.3324 246.291 17.0882C246.291 16.844 246.093 16.646 245.848 16.646C245.604 16.646 245.406 16.844 245.406 17.0882C245.406 17.3324 245.604 17.5304 245.848 17.5304Z" fill="#0F1011"/>
<path d="M245.083 16.1452L246.255 16.1306C246.308 16.1281 246.359 16.1051 246.396 16.0663C246.432 16.0276 246.453 15.9762 246.453 15.9227C246.453 15.8692 246.432 15.8178 246.396 15.7791C246.359 15.7404 246.308 15.7174 246.255 15.7148H246.252L245.08 15.7295C245.026 15.7324 244.976 15.7557 244.939 15.7947C244.903 15.8336 244.882 15.8852 244.883 15.9387C244.883 15.9922 244.904 16.0435 244.941 16.082C244.979 16.1204 245.029 16.1431 245.083 16.1452Z" fill="#0F1011"/>
<path d="M250.295 16.5725C250.345 16.5722 250.394 16.5534 250.432 16.5195C250.47 16.4856 250.494 16.439 250.5 16.3886C250.506 16.3381 250.493 16.2873 250.464 16.2457C250.435 16.2041 250.391 16.1746 250.342 16.1628L249.186 15.8844C249.159 15.8769 249.131 15.8748 249.103 15.8784C249.075 15.8821 249.049 15.8912 249.025 15.9054C249 15.9196 248.979 15.9384 248.963 15.9609C248.946 15.9834 248.934 16.009 248.928 16.0362C248.921 16.0634 248.92 16.0916 248.925 16.1192C248.929 16.1468 248.94 16.1732 248.955 16.1968C248.97 16.2203 248.989 16.2406 249.012 16.2565C249.035 16.2723 249.061 16.2833 249.089 16.2888L250.244 16.5668C250.261 16.5709 250.278 16.5728 250.295 16.5725Z" fill="#0F1011"/>
<path d="M251.641 18.4573C251.618 18.7041 251.644 18.953 251.719 19.1896C251.793 19.4262 251.913 19.6457 252.072 19.8355C252.232 20.0254 252.427 20.1817 252.647 20.2955C252.868 20.4093 253.108 20.4784 253.355 20.4986C253.602 20.5189 253.851 20.49 254.087 20.4136C254.323 20.3372 254.541 20.2148 254.729 20.0535C254.918 19.8922 255.072 19.6952 255.184 19.4739C255.295 19.2525 255.362 19.0113 255.38 18.764C255.404 18.5177 255.379 18.2689 255.305 18.0326C255.231 17.7962 255.111 17.5771 254.951 17.3883C254.791 17.1995 254.594 17.0449 254.373 16.9337C254.152 16.8225 253.91 16.7569 253.663 16.7409C252.326 16.6974 251.725 17.4247 251.641 18.4573Z" fill="#E98862"/>
<g opacity="0.15">
<path d="M247.376 19.8286C247.413 19.8293 247.448 19.8167 247.477 19.7931C247.505 19.7694 247.524 19.7364 247.529 19.7C247.535 19.6637 247.527 19.6265 247.508 19.5953C247.488 19.5641 247.458 19.5411 247.423 19.5304L246.523 19.2538L247.153 17.8522C247.169 17.8152 247.171 17.7731 247.156 17.7352C247.142 17.6973 247.113 17.6666 247.076 17.6499C247.039 17.6333 246.997 17.632 246.959 17.6464C246.921 17.6608 246.89 17.6897 246.874 17.7266L246.173 19.2864C246.165 19.3061 246.16 19.3275 246.16 19.3491C246.16 19.3708 246.165 19.3921 246.174 19.4118C246.183 19.4315 246.196 19.4491 246.212 19.4634C246.228 19.4778 246.247 19.4885 246.268 19.495L247.331 19.8215C247.345 19.8262 247.361 19.8286 247.376 19.8286Z" fill="black"/>
</g>
<path d="M249.134 20.8598C248.202 20.9533 247.26 20.8762 246.355 20.6323C246.412 20.9452 246.57 21.2307 246.805 21.4445C247.041 21.6582 247.34 21.7881 247.657 21.8141C247.974 21.84 248.291 21.7605 248.558 21.5879C248.825 21.4154 249.027 21.1594 249.134 20.8598Z" fill="#F8FCFF"/>
<path d="M268.197 232.201C265.1 231.312 262.77 228.541 261.842 225.452C260.914 222.364 261.242 219.017 262.147 215.924C262.885 213.4 264.004 210.96 264.28 208.344C265.198 199.635 256.751 190.738 260.726 182.935C262.012 180.412 264.502 178.44 264.943 175.643C265.31 173.33 264.171 171.082 263.604 168.81C262.825 165.683 263.22 162.134 265.249 159.63C267.278 157.126 271.112 156.031 273.907 157.635C277.564 159.733 277.881 164.911 276.941 169.02C276.002 173.129 274.26 177.357 275.408 181.413C276.503 185.279 280.064 188.191 280.703 192.157C281.234 195.455 279.624 198.67 278.916 201.935C277.805 207.066 278.936 212.384 278.985 217.633C279.034 222.882 277.551 228.771 268.197 232.201Z" fill="#1EC40A"/>
<path d="M263.416 232.7C261.573 232.114 259.919 231.048 258.624 229.612C257.329 228.175 256.439 226.42 256.047 224.526C255.44 221.402 256.185 217.894 254.475 215.21C252.159 211.576 249.783 211.163 246.899 207.958C242.463 203.03 242.309 200.847 242.601 191.72C242.725 187.86 237.395 183.504 239.272 179.795C240.924 176.528 245.953 176.511 248.805 178.81C251.657 181.109 252.907 184.795 254.15 188.24C255.393 191.686 256.958 195.33 260.107 197.2C261.995 198.322 264.467 198.84 265.51 200.773C266.349 202.326 265.926 204.221 265.589 205.954C264.743 210.308 264.954 215.62 268.61 218.135C270.258 219.267 272.417 219.66 273.773 221.133C275.113 222.589 275.33 224.746 275.238 226.723C275.06 230.523 274.013 234.232 272.177 237.565" fill="#DEE8F5"/>
<path d="M267.823 235.732C266.211 233.812 265.24 231.437 265.044 228.937C264.849 226.438 265.44 223.941 266.733 221.794C268.97 218.249 273.139 215.808 274.015 211.709C274.795 208.058 272.632 204.285 273.28 200.609C273.984 196.611 277.677 193.987 280.611 191.182C281.374 190.5 282.031 189.707 282.559 188.83C283.849 186.507 283.489 183.658 283.927 181.038C284.766 176.02 288.901 171.568 293.921 170.739C298.324 170.011 301.477 172.541 301.477 177.198C301.477 182.716 297.344 185.079 295.235 187.58C292.206 191.197 290.599 195.793 290.713 200.509C290.862 205.777 293.105 211.385 290.709 216.079C288.95 219.524 285.194 221.359 282.243 223.859C280.012 225.77 278.197 228.117 276.908 230.755C275.619 233.394 274.884 236.269 274.748 239.202" fill="#F3F5FD"/>
<path d="M282.023 227.081H255.475V253.629H282.023V227.081Z" fill="#0CBC8B"/>
<g opacity="0.42">
<path d="M282.023 232.257H255.475V237.44H282.023V232.257Z" fill="white"/>
</g>
<path d="M209.417 50.224L202.028 44.7902C202.028 44.7902 169.662 44.7902 153.479 44.7902V9.96729H209.417V50.224Z" fill="#117805"/>
<path d="M204.035 16.9534H158.859V20.062H204.035V16.9534Z" fill="white"/>
<path d="M204.035 25.6572H158.859V28.7658H204.035V25.6572Z" fill="white"/>
<path d="M204.035 34.3606H158.859V37.4692H204.035V34.3606Z" fill="white"/>
<path d="M181.276 65.8921H131.582V68.6623H181.276V65.8921Z" fill="white"/>
<path d="M181.276 74.9792H131.582V77.7495H181.276V74.9792Z" fill="white"/>
<path d="M181.276 84.0667H131.582V86.8369H181.276V84.0667Z" fill="white"/>
</g>
<defs>
<clipPath id="clip0_244_2349">
<rect width="301.48" height="253.987" fill="white"/>
</clipPath>
</defs>
</svg>
