<svg width="84" height="65" viewBox="0 0 84 65" fill="none" xmlns="http://www.w3.org/2000/svg">
<path d="M75.5005 44.6086C74.4762 44.6086 73.5282 44.2926 72.6564 43.6606C71.7847 43.0286 71.0873 42.2004 70.5642 41.1761C70.0412 40.1518 69.7797 39.0621 69.7797 37.907V35.2264C69.7797 34.0059 70.0412 32.8945 70.5642 31.892C71.0873 30.8895 71.7847 30.094 72.6564 29.5056C73.5282 28.8954 74.498 28.5903 75.5659 28.5903C76.5902 28.5903 77.4619 28.8518 78.1811 29.3748C78.9003 29.8761 79.4342 30.4427 79.7829 31.0747L79.1945 8.02734C79.1945 7.63506 79.4015 7.31905 79.8156 7.07932C80.2297 6.83959 83.4116 34.0531 81.3521 6.71973C81.9405 6.71973 82.4309 6.83959 82.8231 7.07932C83.2154 7.31905 83.4116 7.63506 83.4116 8.02734L84 42.9414C84 43.2901 83.8039 43.6061 83.4116 43.8894C83.0193 44.1727 82.5289 44.3144 81.9405 44.3144C81.4175 44.3144 80.9707 44.1727 80.6002 43.8894C80.2297 43.6061 80.0445 43.2901 80.0445 42.9414V42.026C79.7176 42.7016 79.1291 43.301 78.2792 43.824C77.451 44.3471 76.5248 44.6086 75.5005 44.6086ZM76.8408 40.9145C77.4074 40.9145 77.9087 40.762 78.3446 40.4569C78.7804 40.13 79.1291 39.7813 79.3907 39.4108C79.6522 39.0185 79.7829 38.7134 79.7829 38.4954V35.2264C79.7829 34.6162 79.6304 34.0931 79.3253 33.6573C79.0419 33.2214 78.6715 32.8836 78.2138 32.6439C77.7779 32.4041 77.3312 32.2843 76.8735 32.2843C76.3504 32.2843 75.8601 32.4368 75.4024 32.7419C74.9665 33.0253 74.6178 33.3848 74.3563 33.8207C74.1166 34.2566 73.9967 34.7251 73.9967 35.2264V37.907C73.9967 38.4082 74.1166 38.8877 74.3563 39.3454C74.6178 39.8031 74.9665 40.1845 75.4024 40.4896C75.8383 40.7729 76.3177 40.9145 76.8408 40.9145Z" fill="white"/>
<path d="M61.7917 44.6082C60.2444 44.6082 58.8714 44.3357 57.6727 43.7909C56.4959 43.2243 55.5696 42.4397 54.894 41.4372C54.2184 40.4129 53.8806 39.236 53.8806 37.9066V35.1279C53.8806 33.9511 54.1967 32.8723 54.8287 31.8916C55.4825 30.8891 56.3433 30.0936 57.4112 29.5052C58.5009 28.895 59.7104 28.5898 61.0398 28.5898C62.2603 28.5898 63.3718 28.8514 64.3743 29.3744C65.3986 29.8975 66.2267 30.6167 66.8587 31.532C67.4908 32.4473 67.8068 33.5152 67.8068 34.7356C67.8068 35.6728 67.6542 36.3484 67.3491 36.7625C67.044 37.1547 66.6517 37.4054 66.1722 37.5143C65.7146 37.6015 65.2351 37.6451 64.7339 37.6451H58.0977V38.1354C58.0977 39.0726 58.4464 39.8354 59.1438 40.4238C59.863 40.9904 60.7892 41.2737 61.9225 41.2737C62.6417 41.2737 63.241 41.1648 63.7205 40.9468C64.1999 40.7289 64.614 40.5219 64.9627 40.3257C65.3114 40.1296 65.6383 40.0315 65.9434 40.0315C66.2703 40.0315 66.5536 40.1405 66.7934 40.3584C67.0331 40.5763 67.2183 40.8379 67.3491 41.143C67.4799 41.4263 67.5452 41.6769 67.5452 41.8948C67.5452 42.2653 67.3055 42.6685 66.8261 43.1044C66.3684 43.5185 65.7037 43.8781 64.8319 44.1832C63.982 44.4665 62.9686 44.6082 61.7917 44.6082ZM58.0977 35.1606H62.8705C63.241 35.1606 63.4916 35.1061 63.6224 34.9972C63.7749 34.8664 63.8512 34.6267 63.8512 34.278C63.8512 33.7767 63.7096 33.33 63.4262 32.9377C63.1647 32.5454 62.816 32.2403 62.3802 32.0223C61.9661 31.8044 61.4975 31.6954 60.9745 31.6954C60.4732 31.6954 60.0047 31.8044 59.5688 32.0223C59.1329 32.2185 58.7733 32.5127 58.49 32.905C58.2285 33.2755 58.0977 33.7222 58.0977 34.2453V35.1606Z" fill="white"/>
<path d="M45.9254 44.6082C44.378 44.6082 43.005 44.3357 41.8064 43.7909C40.6295 43.2243 39.7033 42.4397 39.0277 41.4372C38.3521 40.4129 38.0143 39.236 38.0143 37.9066V35.1279C38.0143 33.9511 38.3303 32.8723 38.9623 31.8916C39.6161 30.8891 40.477 30.0936 41.5448 29.5052C42.6345 28.895 43.8441 28.5898 45.1735 28.5898C46.3939 28.5898 47.5054 28.8514 48.5079 29.3744C49.5322 29.8975 50.3604 30.6167 50.9924 31.532C51.6244 32.4473 51.9404 33.5152 51.9404 34.7356C51.9404 35.6728 51.7879 36.3484 51.4827 36.7625C51.1776 37.1547 50.7853 37.4054 50.3059 37.5143C49.8482 37.6015 49.3688 37.6451 48.8675 37.6451H42.2313V38.1354C42.2313 39.0726 42.58 39.8354 43.2774 40.4238C43.9966 40.9904 44.9229 41.2737 46.0561 41.2737C46.7753 41.2737 47.3746 41.1648 47.8541 40.9468C48.3336 40.7289 48.7476 40.5219 49.0963 40.3257C49.445 40.1296 49.7719 40.0315 50.077 40.0315C50.404 40.0315 50.6873 40.1405 50.927 40.3584C51.1667 40.5763 51.352 40.8379 51.4827 41.143C51.6135 41.4263 51.6789 41.6769 51.6789 41.8948C51.6789 42.2653 51.4392 42.6685 50.9597 43.1044C50.502 43.5185 49.8373 43.8781 48.9656 44.1832C48.1156 44.4665 47.1022 44.6082 45.9254 44.6082ZM42.2313 35.1606H47.0041C47.3746 35.1606 47.6253 35.1061 47.756 34.9972C47.9086 34.8664 47.9849 34.6267 47.9849 34.278C47.9849 33.7767 47.8432 33.33 47.5599 32.9377C47.2984 32.5454 46.9497 32.2403 46.5138 32.0223C46.0997 31.8044 45.6312 31.6954 45.1081 31.6954C44.6069 31.6954 44.1383 31.8044 43.7024 32.0223C43.2665 32.2185 42.9069 32.5127 42.6236 32.905C42.3621 33.2755 42.2313 33.7222 42.2313 34.2453V35.1606Z" fill="white"/>
<path d="M23.7432 64.8363C23.1547 64.8363 22.6644 64.6946 22.2721 64.4113C21.8798 64.128 21.6837 63.8229 21.6837 63.496L21.6837 30.0936C21.6837 29.7013 21.8798 29.3853 22.2721 29.1456C22.6644 28.9059 23.1438 28.786 23.7105 28.786C24.2771 28.786 24.7348 28.9059 25.0835 29.1456C25.454 29.3853 25.6392 29.7013 25.6392 30.0936V31.0743C26.0097 30.4423 26.5763 29.8757 27.3391 29.3744C28.1019 28.8514 29.0063 28.5898 30.0524 28.5898C31.1639 28.5898 32.1555 28.895 33.0272 29.5052C33.9208 30.0936 34.6182 30.8891 35.1194 31.8916C35.6425 32.8941 35.904 34.0056 35.904 35.226V37.9066C35.904 39.0617 35.6425 40.1514 35.1194 41.1757C34.5964 42.2 33.899 43.0281 33.0272 43.6601C32.1773 44.2921 31.2293 44.6082 30.1832 44.6082C29.2242 44.6082 28.3525 44.3466 27.5679 43.8236C26.7834 43.3005 26.2276 42.7012 25.9007 42.0256V63.496C25.9007 63.8229 25.6937 64.128 25.2796 64.4113C24.8655 64.6946 24.3534 64.8363 23.7432 64.8363ZM28.8102 40.9141C29.3332 40.9141 29.8018 40.7725 30.2159 40.4892C30.6517 40.1841 31.0004 39.8027 31.2619 39.345C31.5453 38.8873 31.6869 38.4079 31.6869 37.9066V35.226C31.6869 34.7247 31.5562 34.2562 31.2946 33.8203C31.0331 33.3844 30.6735 33.0248 30.2159 32.7415C29.78 32.4364 29.2896 32.2839 28.7448 32.2839C28.2653 32.2839 27.8077 32.4037 27.3718 32.6435C26.9577 32.8832 26.609 33.221 26.3257 33.6569C26.0424 34.0927 25.9007 34.6158 25.9007 35.226V38.495C25.9007 38.713 26.0206 39.0181 26.2603 39.4104C26.5218 39.7809 26.8705 40.1296 27.3064 40.4565C27.7423 40.7616 28.2435 40.9141 28.8102 40.9141Z" fill="white"/>
<path d="M11.273 44.6082C9.85642 44.6082 8.5706 44.4012 7.41554 43.9871C6.28227 43.573 5.37783 43.0609 4.70223 42.4507C4.04842 41.8186 3.72152 41.1866 3.72152 40.5546C3.72152 40.2495 3.7978 39.9226 3.95035 39.5739C4.1247 39.2034 4.35353 38.8983 4.63685 38.6586C4.92017 38.397 5.23617 38.2663 5.58487 38.2663C5.93357 38.2663 6.26048 38.397 6.56559 38.6586C6.8707 38.8983 7.21939 39.1925 7.61168 39.5412C8.00397 39.8681 8.48342 40.1623 9.05006 40.4239C9.61669 40.6636 10.3141 40.7835 11.1422 40.7835C11.7961 40.7835 12.3954 40.6854 12.9402 40.4892C13.5069 40.2713 13.9536 39.9553 14.2805 39.5412C14.6292 39.1271 14.8036 38.5932 14.8036 37.9394C14.8036 37.242 14.6183 36.6536 14.2478 36.1741C13.8773 35.6946 13.3761 35.2806 12.7441 34.9319C12.1121 34.5832 11.4256 34.2454 10.6846 33.9185C9.9436 33.5916 9.19172 33.2429 8.42894 32.8724C7.68796 32.5019 7.00146 32.0551 6.36944 31.5321C5.75922 31.009 5.25797 30.3661 4.86568 29.6033C4.49519 28.8405 4.30995 27.9034 4.30995 26.7919C4.30995 25.5715 -0.426514 21.082 0.0311523 20.2538C0.510612 19.4257 6.09702 22.2262 6.8598 21.7249C7.64437 21.2019 8.50522 20.8314 9.44234 20.6135C10.3795 20.3737 11.3166 20.2539 12.2537 20.2539C12.755 20.2539 13.3434 20.2974 14.019 20.3846C14.7164 20.45 15.4029 20.5808 16.0785 20.7769C16.7759 20.9731 17.3425 21.2455 17.7784 21.5942C18.2361 21.9211 18.4649 22.3569 18.4649 22.9018C18.4649 23.1415 18.3995 23.4357 18.2688 23.7844C18.1598 24.1331 17.9746 24.4491 17.713 24.7324C17.4733 25.0158 17.1573 25.1574 16.765 25.1574C16.4163 25.1574 16.0676 25.0594 15.7189 24.8632C15.392 24.6453 14.9561 24.4382 14.4113 24.2421C13.8882 24.0242 13.1691 23.9152 12.2537 23.9152C11.4909 23.9152 10.8262 24.0133 10.2596 24.2094C9.69297 24.4055 9.26799 24.6889 8.98468 25.0594C8.70136 25.4081 8.5597 25.8548 8.5597 26.3997C8.5597 26.9663 8.74495 27.4458 9.11544 27.838C9.50772 28.2303 10.009 28.579 10.6192 28.8841C11.2512 29.1892 11.9377 29.4944 12.6787 29.7995C13.4197 30.1046 14.1607 30.4642 14.9016 30.8783C15.6644 31.2705 16.3618 31.75 16.9938 32.3166C17.6259 32.8833 18.1271 33.5916 18.4976 34.4415C18.8681 35.2697 19.0533 36.294 19.0533 37.5144C19.0533 39.0618 23.0452 41.3828 22.3696 42.4507C21.694 43.4968 16.4381 43.2788 15.2612 43.8237C14.1062 44.3467 12.7768 44.6082 11.273 44.6082Z" fill="url(#paint0_linear_50_26)"/>
<circle cx="81.394" cy="2.54259" r="2.54259" fill="white"/>
<defs>
<linearGradient id="paint0_linear_50_26" x1="11.2233" y1="20.0996" x2="11.2233" y2="44.6082" gradientUnits="userSpaceOnUse">
<stop stop-color="#FFC909"/>
<stop offset="1" stop-color="white"/>
</linearGradient>
</defs>
</svg>
