<svg width="34" height="34" viewBox="0 0 34 34" fill="none" xmlns="http://www.w3.org/2000/svg">
<path d="M24.0833 15.5833H26.9167C27.6681 15.5833 28.3888 15.8818 28.9201 16.4132C29.4515 16.9446 29.75 17.6652 29.75 18.4167V21.25C29.75 21.6257 29.6007 21.9861 29.3351 22.2517C29.0694 22.5174 28.7091 22.6667 28.3333 22.6667H26.2083M24.0833 15.5833H14.875M24.0833 15.5833L20.6592 9.87558C20.4075 9.45603 20.0514 9.10882 19.6257 8.86776C19.1999 8.62669 18.7189 8.5 18.2297 8.5H14.875M26.2083 22.6667C26.2083 23.4181 25.9098 24.1388 25.3785 24.6701C24.8471 25.2015 24.1264 25.5 23.375 25.5C22.6236 25.5 21.9029 25.2015 21.3715 24.6701C20.8402 24.1388 20.5417 23.4181 20.5417 22.6667M26.2083 22.6667C26.2083 21.9152 25.9098 21.1946 25.3785 20.6632C24.8471 20.1318 24.1264 19.8333 23.375 19.8333C22.6236 19.8333 21.9029 20.1318 21.3715 20.6632C20.8402 21.1946 20.5417 21.9152 20.5417 22.6667M14.875 15.5833V8.5M14.875 15.5833H7.08333M14.875 8.5H10.8233C10.1681 8.49974 9.533 8.7266 9.02621 9.14195C8.51942 9.5573 8.17226 10.1355 8.04383 10.778L7.08333 15.5833M7.08333 15.5833C6.33189 15.5833 5.61122 15.8818 5.07986 16.4132C4.54851 16.9446 4.25 17.6652 4.25 18.4167V21.25C4.25 21.6257 4.39926 21.9861 4.66493 22.2517C4.93061 22.5174 5.29094 22.6667 5.66667 22.6667H7.79167M7.79167 22.6667C7.79167 23.4181 8.09018 24.1388 8.62153 24.6701C9.15288 25.2015 9.87355 25.5 10.625 25.5C11.3764 25.5 12.0971 25.2015 12.6285 24.6701C13.1598 24.1388 13.4583 23.4181 13.4583 22.6667M7.79167 22.6667C7.79167 21.9152 8.09018 21.1946 8.62153 20.6632C9.15288 20.1318 9.87355 19.8333 10.625 19.8333C11.3764 19.8333 12.0971 20.1318 12.6285 20.6632C13.1598 21.1946 13.4583 21.9152 13.4583 22.6667M13.4583 22.6667H20.5417" stroke="black" stroke-linecap="round" stroke-linejoin="round"/>
</svg>
