<svg width="97" height="111" viewBox="0 0 97 111" fill="none" xmlns="http://www.w3.org/2000/svg">
<path fill-rule="evenodd" clip-rule="evenodd" d="M51.2578 109.499C61.5324 104.17 97 83.256 97 48.5C97 21.7142 75.2858 0 48.5 0C21.7142 0 0 21.7142 0 48.5C0 83.256 35.4676 104.17 45.7422 109.499C47.4941 110.408 49.5058 110.408 51.2578 109.499ZM48.5 69.2857C59.9796 69.2857 69.2857 59.9796 69.2857 48.5C69.2857 37.0203 59.9796 27.7142 48.5 27.7142C37.0204 27.7142 27.7143 37.0203 27.7143 48.5C27.7143 59.9796 37.0204 69.2857 48.5 69.2857Z" fill="#34C759"/>
</svg>
