<svg width="232" height="179" viewBox="0 0 232 179" fill="none" xmlns="http://www.w3.org/2000/svg">
<path d="M207.86 122.812C205.04 122.812 202.43 121.942 200.03 120.202C197.63 118.462 195.71 116.182 194.27 113.362C192.83 110.542 192.11 107.542 192.11 104.362V96.9817C192.11 93.6217 192.83 90.5618 194.27 87.8018C195.71 85.0417 197.63 82.8518 200.03 81.2318C202.43 79.5518 205.1 78.7118 208.04 78.7118C210.86 78.7118 213.26 79.4318 215.24 80.8718C217.22 82.2518 218.69 83.8118 219.65 85.5518L218.03 22.1C218.03 21.02 218.6 20.15 219.74 19.49C220.88 18.83 229.64 93.7515 223.97 18.5C225.59 18.5 226.94 18.83 228.02 19.49C229.1 20.15 229.64 21.02 229.64 22.1L231.26 118.222C231.26 119.182 230.72 120.052 229.64 120.832C228.56 121.612 227.21 122.002 225.59 122.002C224.15 122.002 222.92 121.612 221.9 120.832C220.88 120.052 220.37 119.182 220.37 118.222V115.702C219.47 117.562 217.85 119.212 215.51 120.652C213.23 122.092 210.68 122.812 207.86 122.812ZM211.55 112.642C213.11 112.642 214.49 112.222 215.69 111.382C216.89 110.482 217.85 109.522 218.57 108.502C219.29 107.422 219.65 106.582 219.65 105.982V96.9817C219.65 95.3017 219.23 93.8617 218.39 92.6617C217.61 91.4617 216.59 90.5318 215.33 89.8717C214.13 89.2117 212.9 88.8817 211.64 88.8817C210.2 88.8817 208.85 89.3018 207.59 90.1418C206.39 90.9218 205.43 91.9117 204.71 93.1117C204.05 94.3117 203.72 95.6017 203.72 96.9817V104.362C203.72 105.742 204.05 107.062 204.71 108.322C205.43 109.582 206.39 110.632 207.59 111.472C208.79 112.252 210.11 112.642 211.55 112.642Z" fill="white"/>
<path d="M170.119 122.811C165.859 122.811 162.079 122.061 158.779 120.561C155.539 119.001 152.989 116.841 151.129 114.081C149.269 111.261 148.339 108.021 148.339 104.361V96.7109C148.339 93.4709 149.209 90.5009 150.949 87.8009C152.749 85.0409 155.119 82.8509 158.059 81.2309C161.059 79.5509 164.389 78.7109 168.049 78.7109C171.409 78.7109 174.469 79.4309 177.229 80.8709C180.049 82.3109 182.329 84.2909 184.069 86.8109C185.809 89.3309 186.679 92.2709 186.679 95.6309C186.679 98.2109 186.259 100.071 185.419 101.211C184.579 102.291 183.499 102.981 182.179 103.281C180.919 103.521 179.599 103.641 178.219 103.641H159.949V104.991C159.949 107.571 160.909 109.671 162.829 111.291C164.809 112.851 167.359 113.631 170.479 113.631C172.459 113.631 174.109 113.331 175.429 112.731C176.749 112.131 177.889 111.561 178.849 111.021C179.809 110.481 180.709 110.211 181.549 110.211C182.449 110.211 183.229 110.511 183.889 111.111C184.549 111.711 185.059 112.431 185.419 113.271C185.779 114.051 185.959 114.741 185.959 115.341C185.959 116.361 185.299 117.471 183.979 118.671C182.719 119.811 180.889 120.801 178.489 121.641C176.149 122.421 173.359 122.811 170.119 122.811ZM159.949 96.8009H173.089C174.109 96.8009 174.799 96.6509 175.159 96.3509C175.579 95.9909 175.789 95.3309 175.789 94.3709C175.789 92.9909 175.399 91.7609 174.619 90.6809C173.899 89.6009 172.939 88.7609 171.739 88.1609C170.599 87.5609 169.309 87.2609 167.869 87.2609C166.489 87.2609 165.199 87.5609 163.999 88.1609C162.799 88.7009 161.809 89.5109 161.029 90.5909C160.309 91.6109 159.949 92.8409 159.949 94.2809V96.8009Z" fill="white"/>
<path d="M126.437 122.811C122.177 122.811 118.397 122.061 115.097 120.561C111.857 119.001 109.307 116.841 107.447 114.081C105.587 111.261 104.657 108.021 104.657 104.361V96.7109C104.657 93.4709 105.527 90.5009 107.267 87.8009C109.067 85.0409 111.437 82.8509 114.377 81.2309C117.377 79.5509 120.707 78.7109 124.367 78.7109C127.727 78.7109 130.787 79.4309 133.547 80.8709C136.367 82.3109 138.647 84.2909 140.387 86.8109C142.127 89.3309 142.997 92.2709 142.997 95.6309C142.997 98.2109 142.577 100.071 141.737 101.211C140.897 102.291 139.817 102.981 138.497 103.281C137.237 103.521 135.917 103.641 134.537 103.641H116.267V104.991C116.267 107.571 117.227 109.671 119.147 111.291C121.127 112.851 123.677 113.631 126.797 113.631C128.777 113.631 130.427 113.331 131.747 112.731C133.067 112.131 134.207 111.561 135.167 111.021C136.127 110.481 137.027 110.211 137.867 110.211C138.767 110.211 139.547 110.511 140.207 111.111C140.867 111.711 141.377 112.431 141.737 113.271C142.097 114.051 142.277 114.741 142.277 115.341C142.277 116.361 141.617 117.471 140.297 118.671C139.037 119.811 137.207 120.801 134.807 121.641C132.467 122.421 129.677 122.811 126.437 122.811ZM116.267 96.8009H129.407C130.427 96.8009 131.117 96.6509 131.477 96.3509C131.897 95.9909 132.107 95.3309 132.107 94.3709C132.107 92.9909 131.717 91.7609 130.937 90.6809C130.217 89.6009 129.257 88.7609 128.057 88.1609C126.917 87.5609 125.627 87.2609 124.187 87.2609C122.807 87.2609 121.517 87.5609 120.317 88.1609C119.117 88.7009 118.127 89.5109 117.347 90.5909C116.627 91.6109 116.267 92.8409 116.267 94.2809V96.8009Z" fill="white"/>
<path d="M65.3672 178.501C63.7472 178.501 62.3972 178.111 61.3172 177.331C60.2372 176.551 59.6972 175.711 59.6972 174.811L59.6972 82.8509C59.6972 81.7709 60.2372 80.9009 61.3172 80.2409C62.3972 79.5809 63.7172 79.2509 65.2772 79.2509C66.8372 79.2509 68.0972 79.5809 69.0572 80.2409C70.0772 80.9009 70.5872 81.7709 70.5872 82.8509V85.5509C71.6072 83.8109 73.1672 82.2509 75.2672 80.8709C77.3672 79.4309 79.8572 78.7109 82.7372 78.7109C85.7972 78.7109 88.5272 79.5509 90.9272 81.2309C93.3872 82.8509 95.3072 85.0409 96.6872 87.8009C98.1272 90.5609 98.8472 93.6209 98.8472 96.9809V104.361C98.8472 107.541 98.1272 110.541 96.6872 113.361C95.2472 116.181 93.3272 118.461 90.9272 120.201C88.5872 121.941 85.9772 122.811 83.0972 122.811C80.4572 122.811 78.0572 122.091 75.8972 120.651C73.7372 119.211 72.2072 117.561 71.3072 115.701V174.811C71.3072 175.711 70.7372 176.551 69.5972 177.331C68.4572 178.111 67.0472 178.501 65.3672 178.501ZM79.3172 112.641C80.7572 112.641 82.0472 112.251 83.1872 111.471C84.3872 110.631 85.3472 109.581 86.0672 108.321C86.8472 107.061 87.2372 105.741 87.2372 104.361V96.9809C87.2372 95.6009 86.8772 94.3109 86.1572 93.1109C85.4372 91.9109 84.4472 90.9209 83.1872 90.1409C81.9872 89.3009 80.6372 88.8809 79.1372 88.8809C77.8172 88.8809 76.5572 89.2109 75.3572 89.8709C74.2172 90.5309 73.2572 91.4609 72.4772 92.6609C71.6972 93.8609 71.3072 95.3009 71.3072 96.9809V105.981C71.3072 106.581 71.6372 107.421 72.2972 108.501C73.0172 109.521 73.9772 110.481 75.1772 111.381C76.3772 112.221 77.7572 112.641 79.3172 112.641Z" fill="white"/>
<path d="M31.0357 122.811C27.1357 122.811 23.5957 122.241 20.4157 121.101C17.2957 119.961 14.8057 118.551 12.9457 116.871C11.1457 115.131 10.2457 113.391 10.2457 111.651C10.2457 110.811 10.4557 109.911 10.8757 108.951C11.3557 107.931 11.9857 107.091 12.7657 106.431C13.5457 105.711 14.4157 105.351 15.3757 105.351C16.3357 105.351 17.2357 105.711 18.0757 106.431C18.9157 107.091 19.8757 107.901 20.9557 108.861C22.0357 109.761 23.3557 110.571 24.9157 111.291C26.4757 111.951 28.3957 112.281 30.6757 112.281C32.4757 112.281 34.1257 112.011 35.6257 111.471C37.1857 110.871 38.4157 110.001 39.3157 108.861C40.2757 107.721 40.7557 106.251 40.7557 104.451C40.7557 102.531 40.2457 100.911 39.2257 99.5911C38.2057 98.2711 36.8257 97.1311 35.0857 96.1711C33.3457 95.2111 31.4557 94.2811 29.4157 93.3811C27.3757 92.4811 25.3057 91.5211 23.2057 90.5011C21.1657 89.4811 19.2757 88.2511 17.5357 86.8111C15.8557 85.3711 14.4757 83.6011 13.3957 81.5011C12.3757 79.4011 11.8657 76.8211 11.8657 73.7611C11.8657 70.4011 -1.17423 58.0411 0.0857654 55.7611C1.40577 53.4811 16.7857 61.1911 18.8857 59.8111C21.0457 58.3711 23.4157 57.3511 25.9957 56.7511C28.5757 56.0911 31.1557 55.7611 33.7357 55.7611C35.1157 55.7611 36.7357 55.8811 38.5957 56.1211C40.5157 56.3011 42.4057 56.6611 44.2657 57.2011C46.1857 57.7411 47.7457 58.4911 48.9457 59.4511C50.2057 60.3511 50.8357 61.5511 50.8357 63.0511C50.8357 63.7111 50.6557 64.5211 50.2957 65.4811C49.9957 66.4411 49.4857 67.3111 48.7657 68.0911C48.1057 68.8711 47.2357 69.2611 46.1557 69.2611C45.1957 69.2611 44.2357 68.9911 43.2757 68.4511C42.3757 67.8511 41.1757 67.2811 39.6757 66.7411C38.2357 66.1411 36.2557 65.8411 33.7357 65.8411C31.6357 65.8411 29.8057 66.1111 28.2457 66.6511C26.6857 67.1911 25.5157 67.9711 24.7357 68.9911C23.9557 69.9511 23.5657 71.1811 23.5657 72.6811C23.5657 74.2411 24.0757 75.5611 25.0957 76.6411C26.1757 77.7211 27.5557 78.6811 29.2357 79.5211C30.9757 80.3611 32.8657 81.2011 34.9057 82.0411C36.9457 82.8811 38.9857 83.8711 41.0257 85.0111C43.1257 86.0911 45.0457 87.4111 46.7857 88.9711C48.5257 90.5311 49.9057 92.4811 50.9257 94.8211C51.9457 97.1011 52.4557 99.9211 52.4557 103.281C52.4557 107.541 63.4457 113.931 61.5857 116.871C59.7257 119.751 45.2557 119.151 42.0157 120.651C38.8357 122.091 35.1757 122.811 31.0357 122.811Z" fill="url(#paint0_linear_45_12)"/>
<circle cx="224.086" cy="7" r="7" fill="white"/>
<defs>
<linearGradient id="paint0_linear_45_12" x1="30.8989" y1="55.3364" x2="30.8989" y2="122.811" gradientUnits="userSpaceOnUse">
<stop stop-color="#FFC909"/>
<stop offset="1" stop-color="white"/>
</linearGradient>
</defs>
</svg>
