<svg width="55" height="55" viewBox="0 0 55 55" fill="none" xmlns="http://www.w3.org/2000/svg">
<circle cx="27.5" cy="20.625" r="6.875" fill="#178D08"/>
<path fill-rule="evenodd" clip-rule="evenodd" d="M39.9929 36.4567C40.1245 36.6945 40.0568 36.9909 39.8391 37.1536C36.3982 39.7265 32.1271 41.2501 27.5002 41.2501C22.8732 41.2501 18.6021 39.7265 15.1612 37.1536C14.9436 36.9909 14.8759 36.6944 15.0075 36.4567C17.1849 32.5223 21.9599 29.7917 27.5002 29.7917C33.0405 29.7917 37.8154 32.5223 39.9929 36.4567Z" fill="#7E869E" fill-opacity="0.25"/>
<path d="M40.104 8.02075H40.5623C44.6675 8.02075 46.7201 8.02075 47.9954 9.29606C49.2707 10.5714 49.2707 12.6239 49.2707 16.7291V17.1874" stroke="#1EC40A" stroke-opacity="0.5" stroke-width="2.29167" stroke-linecap="round"/>
<path d="M40.104 46.9792H40.5623C44.6675 46.9792 46.7201 46.9792 47.9954 45.7039C49.2707 44.4286 49.2707 42.3761 49.2707 38.2709V37.8126" stroke="#1EC40A" stroke-opacity="0.5" stroke-width="2.29167" stroke-linecap="round"/>
<path d="M14.896 8.02075H14.4377C10.3325 8.02075 8.27994 8.02075 7.00463 9.29606C5.72933 10.5714 5.72933 12.6239 5.72933 16.7291V17.1874" stroke="#1EC40A" stroke-opacity="0.5" stroke-width="2.29167" stroke-linecap="round"/>
<path d="M14.896 46.9792H14.4377C10.3325 46.9792 8.27994 46.9792 7.00463 45.7039C5.72933 44.4286 5.72933 42.3761 5.72933 38.2709V37.8126" stroke="#1EC40A" stroke-opacity="0.5" stroke-width="2.29167" stroke-linecap="round"/>
</svg>
