<svg width="84" height="65" viewBox="0 0 84 65" fill="none" xmlns="http://www.w3.org/2000/svg">
<rect width="84" height="64.8363" fill="white"/>
<path d="M75.5006 44.6086C74.4763 44.6086 73.5283 44.2926 72.6565 43.6606C71.7848 43.0286 71.0874 42.2004 70.5644 41.1761C70.0413 40.1518 69.7798 39.0621 69.7798 37.907V35.2264C69.7798 34.0059 70.0413 32.8945 70.5644 31.892C71.0874 30.8895 71.7848 30.094 72.6565 29.5056C73.5283 28.8954 74.4981 28.5903 75.566 28.5903C76.5903 28.5903 77.462 28.8518 78.1812 29.3748C78.9004 29.8761 79.4344 30.4427 79.7831 31.0747L79.1946 8.02734C79.1946 7.63506 79.4017 7.31905 79.8157 7.07932C80.2298 6.83959 83.4117 34.0531 81.3522 6.71973C81.9406 6.71973 82.431 6.83959 82.8233 7.07932C83.2156 7.31905 83.4117 7.63506 83.4117 8.02734L84.0001 42.9414C84.0001 43.2901 83.804 43.6061 83.4117 43.8894C83.0194 44.1727 82.529 44.3144 81.9406 44.3144C81.4176 44.3144 80.9708 44.1727 80.6003 43.8894C80.2298 43.6061 80.0446 43.2901 80.0446 42.9414V42.026C79.7177 42.7016 79.1292 43.301 78.2793 43.824C77.4511 44.3471 76.5249 44.6086 75.5006 44.6086ZM76.8409 40.9145C77.4076 40.9145 77.9088 40.762 78.3447 40.4569C78.7806 40.13 79.1292 39.7813 79.3908 39.4108C79.6523 39.0185 79.7831 38.7134 79.7831 38.4954V35.2264C79.7831 34.6162 79.6305 34.0931 79.3254 33.6573C79.0421 33.2214 78.6716 32.8836 78.2139 32.6439C77.778 32.4041 77.3313 32.2843 76.8736 32.2843C76.3506 32.2843 75.8602 32.4368 75.4025 32.7419C74.9667 33.0253 74.618 33.3848 74.3564 33.8207C74.1167 34.2566 73.9969 34.7251 73.9969 35.2264V37.907C73.9969 38.4082 74.1167 38.8877 74.3564 39.3454C74.618 39.8031 74.9667 40.1845 75.4025 40.4896C75.8384 40.7729 76.3179 40.9145 76.8409 40.9145Z" fill="#1EC40A"/>
<path d="M61.7919 44.6082C60.2446 44.6082 58.8716 44.3357 57.6729 43.7909C56.4961 43.2243 55.5699 42.4397 54.8943 41.4372C54.2187 40.4129 53.8809 39.236 53.8809 37.9066V35.1279C53.8809 33.9511 54.1969 32.8723 54.8289 31.8916C55.4827 30.8891 56.3435 30.0936 57.4114 29.5052C58.5011 28.895 59.7106 28.5898 61.0401 28.5898C62.2605 28.5898 63.372 28.8514 64.3745 29.3744C65.3988 29.8975 66.2269 30.6167 66.859 31.532C67.491 32.4473 67.807 33.5152 67.807 34.7356C67.807 35.6728 67.6544 36.3484 67.3493 36.7625C67.0442 37.1547 66.6519 37.4054 66.1725 37.5143C65.7148 37.6015 65.2353 37.6451 64.7341 37.6451H58.0979V38.1354C58.0979 39.0726 58.4466 39.8354 59.144 40.4238C59.8632 40.9904 60.7894 41.2737 61.9227 41.2737C62.6419 41.2737 63.2412 41.1648 63.7207 40.9468C64.2001 40.7289 64.6142 40.5219 64.9629 40.3257C65.3116 40.1296 65.6385 40.0315 65.9436 40.0315C66.2705 40.0315 66.5538 40.1405 66.7936 40.3584C67.0333 40.5763 67.2186 40.8379 67.3493 41.143C67.4801 41.4263 67.5455 41.6769 67.5455 41.8948C67.5455 42.2653 67.3057 42.6685 66.8263 43.1044C66.3686 43.5185 65.7039 43.8781 64.8321 44.1832C63.9822 44.4665 62.9688 44.6082 61.7919 44.6082ZM58.0979 35.1606H62.8707C63.2412 35.1606 63.4918 35.1061 63.6226 34.9972C63.7752 34.8664 63.8514 34.6267 63.8514 34.278C63.8514 33.7767 63.7098 33.33 63.4265 32.9377C63.1649 32.5454 62.8162 32.2403 62.3804 32.0223C61.9663 31.8044 61.4977 31.6954 60.9747 31.6954C60.4734 31.6954 60.0049 31.8044 59.569 32.0223C59.1331 32.2185 58.7735 32.5127 58.4902 32.905C58.2287 33.2755 58.0979 33.7222 58.0979 34.2453V35.1606Z" fill="#1EC40A"/>
<path d="M45.9252 44.6082C44.3779 44.6082 43.0049 44.3357 41.8063 43.7909C40.6294 43.2243 39.7032 42.4397 39.0276 41.4372C38.352 40.4129 38.0142 39.236 38.0142 37.9066V35.1279C38.0142 33.9511 38.3302 32.8723 38.9622 31.8916C39.616 30.8891 40.4768 30.0936 41.5447 29.5052C42.6344 28.895 43.844 28.5898 45.1734 28.5898C46.3938 28.5898 47.5053 28.8514 48.5078 29.3744C49.5321 29.8975 50.3602 30.6167 50.9923 31.532C51.6243 32.4473 51.9403 33.5152 51.9403 34.7356C51.9403 35.6728 51.7877 36.3484 51.4826 36.7625C51.1775 37.1547 50.7852 37.4054 50.3058 37.5143C49.8481 37.6015 49.3686 37.6451 48.8674 37.6451H42.2312V38.1354C42.2312 39.0726 42.5799 39.8354 43.2773 40.4238C43.9965 40.9904 44.9227 41.2737 46.056 41.2737C46.7752 41.2737 47.3745 41.1648 47.854 40.9468C48.3334 40.7289 48.7475 40.5219 49.0962 40.3257C49.4449 40.1296 49.7718 40.0315 50.0769 40.0315C50.4038 40.0315 50.6872 40.1405 50.9269 40.3584C51.1666 40.5763 51.3519 40.8379 51.4826 41.143C51.6134 41.4263 51.6788 41.6769 51.6788 41.8948C51.6788 42.2653 51.439 42.6685 50.9596 43.1044C50.5019 43.5185 49.8372 43.8781 48.9655 44.1832C48.1155 44.4665 47.1021 44.6082 45.9252 44.6082ZM42.2312 35.1606H47.004C47.3745 35.1606 47.6251 35.1061 47.7559 34.9972C47.9085 34.8664 47.9847 34.6267 47.9847 34.278C47.9847 33.7767 47.8431 33.33 47.5598 32.9377C47.2982 32.5454 46.9495 32.2403 46.5137 32.0223C46.0996 31.8044 45.631 31.6954 45.108 31.6954C44.6067 31.6954 44.1382 31.8044 43.7023 32.0223C43.2664 32.2185 42.9068 32.5127 42.6235 32.905C42.362 33.2755 42.2312 33.7222 42.2312 34.2453V35.1606Z" fill="#1EC40A"/>
<path d="M23.7431 64.8363C23.1547 64.8363 22.6643 64.6946 22.272 64.4113C21.8797 64.128 21.6836 63.8229 21.6836 63.496L21.6836 30.0936C21.6836 29.7013 21.8797 29.3853 22.272 29.1456C22.6643 28.9059 23.1438 28.786 23.7104 28.786C24.277 28.786 24.7347 28.9059 25.0834 29.1456C25.4539 29.3853 25.6391 29.7013 25.6391 30.0936V31.0743C26.0096 30.4423 26.5763 29.8757 27.339 29.3744C28.1018 28.8514 29.0062 28.5898 30.0523 28.5898C31.1638 28.5898 32.1554 28.895 33.0272 29.5052C33.9207 30.0936 34.6181 30.8891 35.1194 31.8916C35.6424 32.8941 35.9039 34.0056 35.9039 35.226V37.9066C35.9039 39.0617 35.6424 40.1514 35.1194 41.1757C34.5963 42.2 33.8989 43.0281 33.0272 43.6601C32.1772 44.2921 31.2292 44.6082 30.1831 44.6082C29.2242 44.6082 28.3524 44.3466 27.5679 43.8236C26.7833 43.3005 26.2276 42.7012 25.9007 42.0256V63.496C25.9007 63.8229 25.6936 64.128 25.2795 64.4113C24.8655 64.6946 24.3533 64.8363 23.7431 64.8363ZM28.8101 40.9141C29.3332 40.9141 29.8017 40.7725 30.2158 40.4892C30.6517 40.1841 31.0004 39.8027 31.2619 39.345C31.5452 38.8873 31.6869 38.4079 31.6869 37.9066V35.226C31.6869 34.7247 31.5561 34.2562 31.2946 33.8203C31.0331 33.3844 30.6735 33.0248 30.2158 32.7415C29.7799 32.4364 29.2896 32.2839 28.7447 32.2839C28.2653 32.2839 27.8076 32.4037 27.3717 32.6435C26.9576 32.8832 26.609 33.221 26.3256 33.6569C26.0423 34.0927 25.9007 34.6158 25.9007 35.226V38.495C25.9007 38.713 26.0205 39.0181 26.2603 39.4104C26.5218 39.7809 26.8705 40.1296 27.3063 40.4565C27.7422 40.7616 28.2435 40.9141 28.8101 40.9141Z" fill="#1EC40A"/>
<path d="M11.273 44.6082C9.85642 44.6082 8.5706 44.4012 7.41554 43.9871C6.28227 43.573 5.37783 43.0609 4.70223 42.4507C4.04842 41.8186 3.72152 41.1866 3.72152 40.5546C3.72152 40.2495 3.7978 39.9226 3.95035 39.5739C4.1247 39.2034 4.35353 38.8983 4.63685 38.6586C4.92017 38.397 5.23617 38.2663 5.58487 38.2663C5.93357 38.2663 6.26048 38.397 6.56559 38.6586C6.8707 38.8983 7.21939 39.1925 7.61168 39.5412C8.00397 39.8681 8.48342 40.1623 9.05006 40.4239C9.61669 40.6636 10.3141 40.7835 11.1422 40.7835C11.7961 40.7835 12.3954 40.6854 12.9402 40.4892C13.5069 40.2713 13.9536 39.9553 14.2805 39.5412C14.6292 39.1271 14.8036 38.5932 14.8036 37.9394C14.8036 37.242 14.6183 36.6536 14.2478 36.1741C13.8773 35.6946 13.3761 35.2806 12.7441 34.9319C12.1121 34.5832 11.4256 34.2454 10.6846 33.9185C9.9436 33.5916 9.19172 33.2429 8.42894 32.8724C7.68796 32.5019 7.00146 32.0551 6.36944 31.5321C5.75922 31.009 5.25797 30.3661 4.86568 29.6033C4.49519 28.8405 4.30995 27.9034 4.30995 26.7919C4.30995 25.5715 -0.426514 21.082 0.0311523 20.2538C0.510612 19.4257 6.09702 22.2262 6.8598 21.7249C7.64437 21.2019 8.50522 20.8314 9.44234 20.6135C10.3795 20.3737 11.3166 20.2539 12.2537 20.2539C12.755 20.2539 13.3434 20.2974 14.019 20.3846C14.7164 20.45 15.4029 20.5808 16.0785 20.7769C16.7759 20.9731 17.3425 21.2455 17.7784 21.5942C18.2361 21.9211 18.4649 22.3569 18.4649 22.9018C18.4649 23.1415 18.3995 23.4357 18.2688 23.7844C18.1598 24.1331 17.9746 24.4491 17.713 24.7324C17.4733 25.0158 17.1573 25.1574 16.765 25.1574C16.4163 25.1574 16.0676 25.0594 15.7189 24.8632C15.392 24.6453 14.9561 24.4382 14.4113 24.2421C13.8882 24.0242 13.1691 23.9152 12.2537 23.9152C11.4909 23.9152 10.8262 24.0133 10.2596 24.2094C9.69297 24.4055 9.26799 24.6889 8.98468 25.0594C8.70136 25.4081 8.5597 25.8548 8.5597 26.3997C8.5597 26.9663 8.74495 27.4458 9.11544 27.838C9.50772 28.2303 10.009 28.579 10.6192 28.8841C11.2512 29.1892 11.9377 29.4944 12.6787 29.7995C13.4197 30.1046 14.1607 30.4642 14.9016 30.8783C15.6644 31.2705 16.3618 31.75 16.9938 32.3166C17.6259 32.8833 18.1271 33.5916 18.4976 34.4415C18.8681 35.2697 19.0533 36.294 19.0533 37.5144C19.0533 39.0618 23.0452 41.3828 22.3696 42.4507C21.694 43.4968 16.4381 43.2788 15.2612 43.8237C14.1062 44.3467 12.7768 44.6082 11.273 44.6082Z" fill="url(#paint0_linear_97_530)"/>
<circle cx="81.3941" cy="2.54259" r="2.54259" fill="#1EC40A"/>
<defs>
<linearGradient id="paint0_linear_97_530" x1="11.2233" y1="20.0996" x2="11.2233" y2="44.6082" gradientUnits="userSpaceOnUse">
<stop stop-color="#FFC909"/>
<stop offset="1" stop-color="white"/>
</linearGradient>
</defs>
</svg>
